# xmcd
#
# Track frame offsets: 
#        150
#        20619
#        40241
#        63379
#        83437
#        110769
#        133664
#        153965
#        175562
#        180240
#
# Disc length: 2741 seconds
#
# Revision: 1
# Processed by: cddbd v1.5.1PL0 Copyright (c) Steve Scherf et al.
# Submitted via: ExactAudioCopy v0.95a5
#
DISCID=720ab30a
DTITLE=Craig Chaquico - Midnight Noon
DYEAR=2004
DGENRE=Jazz
TTITLE0=Her Boyfriend's Wedding
TTITLE1=Dream Date
TTITLE2=El Gato
TTITLE3=Bobby Sox
TTITLE4=Always With You
TTITLE5=Jazz Noon
TTITLE6=Dia Del Zorro
TTITLE7=Girls' Night Out
TTITLE8=Equinox
TTITLE9=Outlaw In The City
EXTD=YEAR: 2004
EXTT0=
EXTT1=
EXTT2=
EXTT3=
EXTT4=
EXTT5=
EXTT6=
EXTT7=
EXTT8=
EXTT9=
PLAYORDER=
